<svg width="101" height="20" viewBox="0 0 101 20" fill="none" xmlns="http://www.w3.org/2000/svg">
<g clip-path="url(#clip0_21_399)">
<path d="M48.3643 6.3407H49.5881L52.8138 15.31L55.9747 6.3407H57.5795L60.7025 15.3533L63.9661 6.3407H65.1899L61.5184 16.5987H59.911L56.7744 7.58614L53.6378 16.5987H52.0304L48.3589 6.3407H48.3643Z" fill="white"/>
<path d="M66.457 6.3407H67.5539V7.67259H66.457V6.3407ZM66.457 9.3719H67.5539V16.5987H66.457V9.3719Z" fill="white"/>
<path d="M69.5286 14.1051H70.5498V14.459C70.5498 15.3505 70.9712 15.7207 72.0924 15.7207H74.4401C76.0854 15.7207 76.6068 15.6504 76.6068 14.5725V14.5157C76.6068 13.8214 76.4285 13.4378 75.1155 13.4378H71.7385C70.1959 13.4378 69.6231 12.8867 69.6231 11.5115V11.0874C69.6231 9.9122 70.2229 9.26111 72.9245 9.26111H74.6076C77.0796 9.26111 77.4254 10.0554 77.4254 11.0739V11.4575H76.4069V11.3873C76.4069 10.2823 75.745 10.2526 74.5455 10.2526H72.6327C71.0658 10.2526 70.72 10.4228 70.72 11.2441V11.5142C70.72 12.1086 70.8983 12.449 72.0465 12.449H74.9399C76.5852 12.449 77.7063 12.6327 77.7063 14.5887V14.6184C77.7063 16.6446 76.0232 16.7148 74.6859 16.7148H72.6705C71.0523 16.7148 69.534 16.7148 69.534 14.5482V14.1078L69.5286 14.1051Z" fill="white"/>
<path d="M79.2329 12.1762C79.2329 9.5556 80.8647 9.25842 82.4181 9.25842H84.1768C86.1409 9.25842 87.5566 9.80955 87.5566 12.3896V13.1974H80.3271V13.6512C80.3271 15.2938 81.0403 15.7207 82.953 15.7207H84.4578C85.8356 15.7207 86.3949 15.5234 86.4597 14.4185H87.5566V14.559C87.5566 16.2178 86.3192 16.7122 84.2795 16.7122H82.2911C80.8647 16.7122 79.2329 16.415 79.2329 13.7512V12.1789V12.1762ZM86.4597 11.7223C86.4597 10.9847 85.9626 10.2499 84.1768 10.2499H82.5694C80.835 10.2499 80.427 10.5606 80.3271 12.2059H86.4597V11.725V11.7223Z" fill="white"/>
<path d="M89.3962 6.3407H91.2577L99.711 15.3533V6.3407H100.959V16.5987H99.0977L90.6444 7.58614V16.5987H89.3962V6.3407Z" fill="white"/>
<path fill-rule="evenodd" clip-rule="evenodd" d="M13.3 11.2252L5.80575 0H0L1.12657 1.6885L10.3985 15.5721L13.3 19.919L16.2069 15.5721L17.8036 13.1811L19.4002 15.572L22.3045 19.9189L25.206 15.572L27.4726 12.2031L24.4982 7.96161L22.3045 11.2252L20.7052 8.83157L20.7051 8.83153L17.8521 4.5572L20.7078 8.83155L22.6773 5.8841C22.6773 5.8841 23.0015 5.26273 23.7363 5.26273C24.4712 5.26273 24.8224 5.92192 24.8224 5.92192L32.7111 17.7333C32.7111 17.7333 33.7863 20.0027 36.2096 20.0027H38.8599C40.3107 20.0027 41.5534 19.0923 41.5534 16.6257V2.50979C41.5534 0.82399 40.8672 0 39.2625 0H39.2598C37.6577 0 36.8931 0.791571 36.8931 2.50979V11.7871C36.8931 15.0209 35.5964 13.3676 35.5964 13.3676L28.2804 2.40713C28.2804 2.40713 26.9134 0 24.5927 0H22.8772C20.5376 0 19.2138 2.37471 19.2138 2.37471L17.8036 4.48467L17.8036 4.48471L14.8994 8.83157L17.8036 13.1811L14.8994 8.83155L17.8036 4.48467L14.8075 0H8.99902L10.1337 1.69661L14.8993 8.83155L14.8994 8.83155L13.3 11.2252Z" fill="white"/>
</g>
<defs>
<clipPath id="clip0_21_399">
<rect width="100.959" height="20" fill="white"/>
</clipPath>
</defs>
</svg>
