<svg width="28" height="28" viewBox="0 0 28 28" fill="none" xmlns="http://www.w3.org/2000/svg">
<g clip-path="url(#clip0_4414_3683)">
<rect width="28" height="28" rx="14" fill="#556B88"/>
<g clip-path="url(#clip1_4414_3683)">
<path d="M19.5674 12.5815C19.8278 12.8415 19.7281 13.438 19.6009 14.1192C19.4742 14.8005 19.0753 15.7026 18.9621 15.8033C18.8484 15.9039 18.5334 15.7777 18.5334 15.7777C18.5334 15.7777 18.3046 17.0959 17.3479 18.2823C17.3214 18.3154 17.2943 18.348 17.2668 18.3806C17.2421 18.4099 17.2165 18.4388 17.1914 18.4682C17.1368 18.5297 17.0809 18.5903 17.0222 18.6499C17.0045 18.6681 16.9863 18.6867 16.9682 18.7049C16.95 18.7231 16.9313 18.7413 16.9127 18.7594C15.5875 20.0362 14.5125 20.381 13.6756 20.3307C13.6565 20.3293 13.6369 20.3279 13.6169 20.326C13.5978 20.3242 13.5782 20.3223 13.5586 20.32C13.5376 20.3177 13.5162 20.3149 13.4948 20.3116C13.4887 20.3111 13.4822 20.3102 13.4761 20.3088C13.4622 20.3069 13.4482 20.3046 13.4337 20.3018C13.4323 20.3018 13.43 20.3013 13.4286 20.3009C13.4067 20.2971 13.3843 20.293 13.362 20.2888C13.3419 20.285 13.3224 20.2804 13.3019 20.2762C13.2991 20.2757 13.2963 20.2748 13.2935 20.2743C13.2012 20.2543 13.1048 20.2286 13.0055 20.1974C12.9803 20.19 12.9552 20.1816 12.93 20.1727C12.9272 20.1718 12.9249 20.1709 12.9221 20.1699C12.8997 20.162 12.8769 20.1541 12.8536 20.1457C12.8023 20.1275 12.7506 20.108 12.6984 20.0865C12.6723 20.0763 12.6462 20.0651 12.6197 20.0534C12.6192 20.0534 12.6183 20.0525 12.6178 20.0525C12.5922 20.0413 12.5661 20.0297 12.5405 20.018C12.5144 20.0064 12.4883 19.9938 12.4622 19.9817C12.4617 19.9817 12.4612 19.9812 12.4608 19.9812C12.4482 19.9752 12.4351 19.9686 12.4221 19.9621C12.409 19.9556 12.396 19.9491 12.383 19.9425C12.3569 19.9295 12.3308 19.916 12.3051 19.902C12.3033 19.9011 12.3019 19.9001 12.3005 19.8992C12.2735 19.8852 12.2464 19.8703 12.2199 19.8549C12.2064 19.8475 12.1933 19.84 12.1793 19.8321C12.1658 19.8246 12.1528 19.8167 12.1393 19.8088C12.1127 19.793 12.0852 19.7767 12.0586 19.7603C12.0414 19.7501 12.0242 19.7389 12.0069 19.7277C11.9976 19.7217 11.9878 19.7156 11.9785 19.7096C11.9557 19.6946 11.9324 19.6797 11.9095 19.6634C11.9063 19.6616 11.9035 19.6597 11.9002 19.6574C11.8955 19.6541 11.8904 19.6508 11.8858 19.6471C11.8699 19.6364 11.8536 19.6252 11.8382 19.614C11.8024 19.5884 11.7665 19.5623 11.7311 19.5353C11.7087 19.5185 11.6863 19.5013 11.664 19.4836C11.6621 19.4817 11.6602 19.4808 11.6588 19.4794C11.6393 19.464 11.6202 19.4486 11.601 19.4323C11.5936 19.4267 11.5861 19.4202 11.5787 19.4141C11.5568 19.396 11.5353 19.3778 11.5139 19.3587C11.5102 19.3554 11.5055 19.3517 11.5018 19.3484C11.4543 19.307 11.4072 19.2641 11.3611 19.2193C11.3592 19.2179 11.3578 19.2166 11.3559 19.2142C11.3438 19.203 11.3322 19.1914 11.3205 19.1797C11.3084 19.1681 11.2968 19.1564 11.2851 19.1443C11.2534 19.1122 11.2217 19.0796 11.191 19.046C11.1751 19.0292 11.1602 19.0125 11.1449 18.9952C11.1295 18.9784 11.1146 18.9607 11.0997 18.9435C11.0847 18.9262 11.0698 18.9085 11.0549 18.8908C11.04 18.8731 11.0251 18.855 11.0111 18.8368C10.9818 18.8004 10.9533 18.7632 10.9254 18.7254C10.869 18.6499 10.8154 18.5712 10.7642 18.4892C10.7502 18.4668 10.7362 18.4444 10.7232 18.4221C10.7124 18.4044 10.7017 18.3866 10.6919 18.3694C10.6882 18.3633 10.6845 18.3568 10.6812 18.3508C10.6719 18.334 10.6621 18.3177 10.6533 18.3004C10.6206 18.2417 10.5894 18.1816 10.5601 18.1201C10.5521 18.1043 10.5447 18.088 10.5368 18.0721C10.5167 18.0302 10.4972 17.9887 10.4776 17.9472C10.4524 17.8936 10.4282 17.8405 10.4044 17.7879C9.80145 16.458 9.61599 15.5447 9.61599 15.5447C9.61599 15.5447 9.25999 15.7385 9.11507 15.6439C8.96969 15.5493 8.8709 15.0479 8.63791 14.6253C8.40492 14.2022 8.15236 13.0247 8.3285 12.6044C8.50418 12.184 8.86344 11.9352 9.14909 12.1952C8.95897 11.781 8.38628 10.3476 8.46597 9.66312C8.54565 8.97907 8.50884 7.08255 9.5871 6.32907C10.6654 5.57605 11.348 4.97075 12.4766 5.53365C12.4766 5.53365 13.9169 4.13432 15.8088 4.89386C17.7011 5.65294 19.0101 6.44183 19.3987 7.4982C19.7873 8.55457 19.8306 10.0303 19.586 10.8877C19.3446 11.7316 19.1065 12.5284 19.0995 12.5531C19.113 12.5396 19.3185 12.3304 19.5716 12.582L19.5674 12.5815Z" fill="#E2EAF5"/>
<path d="M12.6975 20.0869C12.7502 20.1079 12.8014 20.1279 12.8527 20.1461C12.8014 20.1279 12.7497 20.1083 12.6975 20.0869Z" fill="#E2EAF5"/>
<path d="M13.0044 20.1973C13.1036 20.2285 13.2006 20.2541 13.2924 20.2742C13.2001 20.2541 13.1036 20.2285 13.0044 20.1973Z" fill="#E2EAF5"/>
<path d="M27.9999 29.8915C27.4822 30.5173 26.923 31.1077 26.3275 31.659C23.0862 34.658 18.7535 36.493 14.0001 36.493C9.2467 36.493 4.91359 34.658 1.67226 31.659C1.07675 31.1077 0.517577 30.5169 -0.00012207 29.8915C0.313479 28.4503 0.725868 26.6563 0.967243 25.9862C1.32138 25.0044 1.77804 24.5142 2.37262 24.1102C3.23887 23.7258 4.84789 23.0766 6.00257 22.6102C6.3637 22.4979 6.68383 22.4066 6.91961 22.3497C7.88651 22.1158 9.09851 21.47 9.94985 20.8614C10.6059 20.3922 10.6087 19.0832 10.6488 18.3004C10.6581 18.3176 10.6675 18.3339 10.6772 18.3507C10.6805 18.3568 10.6842 18.3633 10.688 18.3694C10.6982 18.3871 10.7085 18.4048 10.7192 18.422C10.7327 18.4444 10.7462 18.4672 10.7602 18.4891C10.8114 18.5711 10.8655 18.6494 10.9214 18.7254C10.9494 18.7631 10.9778 18.8004 11.0071 18.8367C11.0216 18.8549 11.036 18.8731 11.051 18.8908C11.0659 18.9085 11.0808 18.9262 11.0957 18.9434C11.1106 18.9612 11.1255 18.9784 11.1409 18.9952C11.1563 19.0124 11.1716 19.0297 11.187 19.046C11.2178 19.0795 11.2495 19.1126 11.2811 19.1443C11.2928 19.1564 11.3044 19.168 11.3166 19.1797C11.3282 19.1913 11.3399 19.203 11.352 19.2142C11.3538 19.216 11.3557 19.2179 11.3571 19.2193C11.4032 19.264 11.4503 19.3069 11.4978 19.3484C11.5015 19.3521 11.5062 19.3554 11.5099 19.3586C11.5314 19.3777 11.5528 19.3959 11.5747 19.4141C11.5822 19.4201 11.5896 19.4267 11.5971 19.4323C11.6162 19.4481 11.6358 19.4639 11.6549 19.4793C11.6567 19.4807 11.6581 19.4821 11.66 19.4835C11.6819 19.5012 11.7042 19.518 11.7271 19.5352C11.7625 19.5618 11.7984 19.5884 11.8343 19.614C11.8501 19.6256 11.8659 19.6364 11.8818 19.6471C11.8869 19.6508 11.8916 19.6541 11.8962 19.6573C11.8995 19.6597 11.9023 19.6615 11.9056 19.6634C11.9284 19.6792 11.9517 19.6941 11.9745 19.7095C11.9838 19.7156 11.9936 19.7221 12.0029 19.7277C12.0202 19.7389 12.0374 19.7496 12.0547 19.7603C12.0812 19.7771 12.1087 19.7934 12.1353 19.8088C12.1488 19.8172 12.1618 19.8246 12.1754 19.8321C12.1889 19.84 12.2024 19.8479 12.2159 19.8549C12.2425 19.8703 12.2695 19.8847 12.2965 19.8992C12.2979 19.9001 12.2993 19.901 12.3012 19.902C12.3268 19.9155 12.3529 19.9294 12.379 19.9425C12.392 19.9495 12.4051 19.956 12.4181 19.9621C12.4312 19.9686 12.4442 19.9746 12.4568 19.9812C12.4568 19.9812 12.4573 19.9812 12.4582 19.9816C12.4843 19.9942 12.5104 20.0063 12.5365 20.018C12.5621 20.0296 12.5882 20.0413 12.6138 20.0525C12.6143 20.0525 12.6152 20.0525 12.6157 20.0534C12.6423 20.065 12.6684 20.0758 12.6944 20.0865C12.7471 20.1079 12.7984 20.128 12.8496 20.1457C12.8729 20.154 12.8957 20.162 12.9181 20.1699C12.9209 20.1704 12.9232 20.1718 12.926 20.1727C12.9512 20.1815 12.9764 20.1895 13.0015 20.1974C13.1008 20.2286 13.1972 20.2542 13.2895 20.2743C13.2923 20.2747 13.2951 20.2757 13.2979 20.2761C13.3179 20.2808 13.338 20.285 13.358 20.2887C13.3804 20.2934 13.4027 20.2971 13.4246 20.3008C13.4265 20.3008 13.4284 20.3013 13.4298 20.3018C13.4442 20.3046 13.4582 20.3069 13.4722 20.3088C13.4782 20.3097 13.4847 20.3106 13.4908 20.3115C13.5122 20.3148 13.5337 20.3176 13.5546 20.3199C13.5747 20.3223 13.5938 20.3241 13.6129 20.326C13.6329 20.3279 13.6525 20.3293 13.6716 20.3307C14.508 20.381 15.5835 20.0362 16.9087 18.7594C16.9278 18.7417 16.946 18.723 16.9642 18.7049C16.9824 18.6867 17.0005 18.6685 17.0182 18.6499C17.0765 18.5902 17.1329 18.5297 17.1874 18.4682C17.2125 18.4393 17.2382 18.4099 17.2629 18.3805C17.2908 18.3479 17.3179 18.3148 17.3439 18.2822C17.3714 19.0581 17.3062 20.3558 18.0466 20.8609C18.911 21.4509 20.1095 22.1153 21.0764 22.3493C21.3122 22.4061 21.6323 22.4974 21.9935 22.6097C23.1477 23.0766 24.7567 23.7258 25.6234 24.1097C26.218 24.5137 26.6746 25.0039 27.0288 25.9857C27.2706 26.6558 27.6825 28.4498 27.9966 29.8911L27.9999 29.8915Z" fill="#E2EAF5"/>
</g>
</g>
<rect x="0.4375" y="0.4375" width="27.125" height="27.125" rx="13.5625" stroke="black" stroke-opacity="0.05" stroke-width="0.875"/>
<defs>
<clipPath id="clip0_4414_3683">
<rect width="28" height="28" rx="14" fill="white"/>
</clipPath>
<clipPath id="clip1_4414_3683">
<rect width="28" height="31.8261" fill="white" transform="translate(-0.00012207 4.66699)"/>
</clipPath>
</defs>
</svg>
