<svg width="28" height="28" viewBox="0 0 28 28" fill="none" xmlns="http://www.w3.org/2000/svg">
<g clip-path="url(#clip0_2393_10532)">
<rect width="28" height="28" rx="14" fill="#B0B3B7"/>
<g clip-path="url(#clip1_2393_10532)">
<path d="M19.5672 12.5815C19.8277 12.8415 19.728 13.438 19.6008 14.1192C19.474 14.8005 19.0752 15.7026 18.9619 15.8033C18.8482 15.9039 18.5332 15.7777 18.5332 15.7777C18.5332 15.7777 18.3044 17.0959 17.3478 18.2823C17.3212 18.3154 17.2942 18.348 17.2667 18.3806C17.242 18.4099 17.2164 18.4388 17.1912 18.4682C17.1367 18.5297 17.0808 18.5903 17.0221 18.6499C17.0044 18.6681 16.9862 18.6867 16.968 18.7049C16.9499 18.7231 16.9312 18.7413 16.9126 18.7594C15.5873 20.0362 14.5123 20.381 13.6754 20.3307C13.6563 20.3293 13.6368 20.3279 13.6167 20.326C13.5976 20.3242 13.5781 20.3223 13.5585 20.32C13.5375 20.3177 13.5161 20.3149 13.4947 20.3116C13.4886 20.3111 13.4821 20.3102 13.476 20.3088C13.462 20.3069 13.4481 20.3046 13.4336 20.3018C13.4322 20.3018 13.4299 20.3013 13.4285 20.3009C13.4066 20.2971 13.3842 20.293 13.3618 20.2888C13.3418 20.285 13.3222 20.2804 13.3017 20.2762C13.2989 20.2757 13.2961 20.2748 13.2933 20.2743C13.2011 20.2543 13.1046 20.2287 13.0054 20.1974C12.9802 20.19 12.9551 20.1816 12.9299 20.1727C12.9271 20.1718 12.9248 20.1709 12.922 20.1699C12.8996 20.162 12.8768 20.1541 12.8535 20.1457C12.8022 20.1275 12.7505 20.108 12.6983 20.0865C12.6722 20.0763 12.6461 20.0651 12.6195 20.0534C12.6191 20.0534 12.6182 20.0525 12.6177 20.0525C12.5921 20.0413 12.566 20.0297 12.5403 20.018C12.5142 20.0064 12.4881 19.9938 12.462 19.9817C12.4616 19.9817 12.4611 19.9812 12.4607 19.9812C12.4481 19.9752 12.435 19.9686 12.422 19.9621C12.4089 19.9556 12.3959 19.9491 12.3828 19.9425C12.3567 19.9295 12.3306 19.916 12.305 19.902C12.3032 19.9011 12.3018 19.9001 12.3004 19.8992C12.2733 19.8852 12.2463 19.8703 12.2197 19.8549C12.2062 19.8475 12.1932 19.84 12.1792 19.8321C12.1657 19.8246 12.1526 19.8167 12.1391 19.8088C12.1126 19.793 12.0851 19.7767 12.0585 19.7603C12.0413 19.7501 12.024 19.7389 12.0068 19.7277C11.9975 19.7217 11.9877 19.7156 11.9784 19.7096C11.9555 19.6946 11.9322 19.6797 11.9094 19.6634C11.9061 19.6616 11.9033 19.6597 11.9001 19.6574C11.8954 19.6541 11.8903 19.6508 11.8856 19.6471C11.8698 19.6364 11.8535 19.6252 11.8381 19.614C11.8022 19.5884 11.7663 19.5623 11.7309 19.5353C11.7086 19.5185 11.6862 19.5013 11.6638 19.4836C11.662 19.4817 11.6601 19.4808 11.6587 19.4794C11.6391 19.464 11.62 19.4486 11.6009 19.4323C11.5935 19.4267 11.586 19.4202 11.5786 19.4141C11.5567 19.396 11.5352 19.3778 11.5138 19.3587C11.5101 19.3554 11.5054 19.3517 11.5017 19.3484C11.4541 19.307 11.4071 19.2641 11.3609 19.2193C11.3591 19.2179 11.3577 19.2166 11.3558 19.2142C11.3437 19.203 11.3321 19.1914 11.3204 19.1797C11.3083 19.1681 11.2966 19.1564 11.285 19.1443C11.2533 19.1122 11.2216 19.0796 11.1909 19.046C11.175 19.0292 11.1601 19.0125 11.1447 18.9952C11.1294 18.9784 11.1144 18.9607 11.0995 18.9435C11.0846 18.9262 11.0697 18.9085 11.0548 18.8908C11.0399 18.8731 11.025 18.855 11.011 18.8368C10.9816 18.8004 10.9532 18.7632 10.9253 18.7254C10.8689 18.6499 10.8153 18.5712 10.764 18.4892C10.7501 18.4668 10.7361 18.4444 10.723 18.4221C10.7123 18.4044 10.7016 18.3866 10.6918 18.3694C10.6881 18.3633 10.6844 18.3568 10.6811 18.3508C10.6718 18.334 10.662 18.3177 10.6531 18.3004C10.6205 18.2417 10.5893 18.1816 10.5599 18.1201C10.552 18.1043 10.5446 18.088 10.5366 18.0721C10.5166 18.0302 10.497 17.9887 10.4775 17.9472C10.4523 17.8936 10.4281 17.8405 10.4043 17.7879C9.80133 16.458 9.61587 15.5447 9.61587 15.5447C9.61587 15.5447 9.25987 15.7385 9.11495 15.6439C8.96956 15.5493 8.87078 15.0479 8.63779 14.6253C8.4048 14.2022 8.15224 13.0247 8.32838 12.6044C8.50405 12.184 8.86332 11.9352 9.14896 12.1952C8.95885 11.781 8.38616 10.3476 8.46584 9.66312C8.54553 8.97907 8.50871 7.08255 9.58698 6.32907C10.6652 5.57605 11.3479 4.97075 12.4765 5.53365C12.4765 5.53365 13.9168 4.13432 15.8087 4.89386C17.701 5.65294 19.0099 6.44183 19.3986 7.4982C19.7872 8.55457 19.8305 10.0303 19.5859 10.8877C19.3445 11.7316 19.1064 12.5284 19.0994 12.5531C19.1129 12.5396 19.3184 12.3304 19.5714 12.582L19.5672 12.5815Z" fill="#EBEEF0"/>
<path d="M12.6974 20.0869C12.75 20.1079 12.8013 20.1279 12.8526 20.1461C12.8013 20.1279 12.7496 20.1083 12.6974 20.0869Z" fill="#EBEEF0"/>
<path d="M13.0044 20.1973C13.1036 20.2285 13.2006 20.2541 13.2924 20.2742C13.2001 20.2541 13.1036 20.2285 13.0044 20.1973Z" fill="#EBEEF0"/>
<path d="M27.9999 29.8915C27.4822 30.5173 26.923 31.1077 26.3275 31.659C23.0862 34.658 18.7535 36.493 14.0001 36.493C9.2467 36.493 4.91359 34.658 1.67226 31.659C1.07675 31.1077 0.517577 30.5169 -0.00012207 29.8915C0.313479 28.4503 0.725868 26.6563 0.967243 25.9862C1.32138 25.0044 1.77804 24.5142 2.37262 24.1102C3.23887 23.7258 4.84789 23.0766 6.00257 22.6102C6.3637 22.4979 6.68383 22.4066 6.91961 22.3497C7.88651 22.1158 9.09851 21.47 9.94985 20.8614C10.6059 20.3922 10.6087 19.0832 10.6488 18.3004C10.6581 18.3176 10.6675 18.3339 10.6772 18.3507C10.6805 18.3568 10.6842 18.3633 10.688 18.3694C10.6982 18.3871 10.7085 18.4048 10.7192 18.422C10.7327 18.4444 10.7462 18.4672 10.7602 18.4891C10.8114 18.5711 10.8655 18.6494 10.9214 18.7254C10.9494 18.7631 10.9778 18.8004 11.0071 18.8367C11.0216 18.8549 11.036 18.8731 11.051 18.8908C11.0659 18.9085 11.0808 18.9262 11.0957 18.9434C11.1106 18.9612 11.1255 18.9784 11.1409 18.9952C11.1563 19.0124 11.1716 19.0297 11.187 19.046C11.2178 19.0795 11.2495 19.1126 11.2811 19.1443C11.2928 19.1564 11.3044 19.168 11.3166 19.1797C11.3282 19.1913 11.3399 19.203 11.352 19.2142C11.3538 19.216 11.3557 19.2179 11.3571 19.2193C11.4032 19.264 11.4503 19.3069 11.4978 19.3484C11.5015 19.3521 11.5062 19.3554 11.5099 19.3586C11.5314 19.3777 11.5528 19.3959 11.5747 19.4141C11.5822 19.4201 11.5896 19.4267 11.5971 19.4323C11.6162 19.4481 11.6358 19.4639 11.6549 19.4793C11.6567 19.4807 11.6581 19.4821 11.66 19.4835C11.6819 19.5012 11.7042 19.518 11.7271 19.5352C11.7625 19.5618 11.7984 19.5884 11.8343 19.614C11.8501 19.6256 11.8659 19.6364 11.8818 19.6471C11.8869 19.6508 11.8916 19.6541 11.8962 19.6573C11.8995 19.6597 11.9023 19.6615 11.9056 19.6634C11.9284 19.6792 11.9517 19.6941 11.9745 19.7095C11.9838 19.7156 11.9936 19.7221 12.0029 19.7277C12.0202 19.7389 12.0374 19.7496 12.0547 19.7603C12.0812 19.7771 12.1087 19.7934 12.1353 19.8088C12.1488 19.8172 12.1618 19.8246 12.1754 19.8321C12.1889 19.84 12.2024 19.8479 12.2159 19.8549C12.2425 19.8703 12.2695 19.8847 12.2965 19.8992C12.2979 19.9001 12.2993 19.901 12.3012 19.902C12.3268 19.9155 12.3529 19.9294 12.379 19.9425C12.392 19.9495 12.4051 19.956 12.4181 19.9621C12.4312 19.9686 12.4442 19.9746 12.4568 19.9812C12.4568 19.9812 12.4573 19.9812 12.4582 19.9816C12.4843 19.9942 12.5104 20.0063 12.5365 20.018C12.5621 20.0296 12.5882 20.0413 12.6138 20.0525C12.6143 20.0525 12.6152 20.0525 12.6157 20.0534C12.6423 20.065 12.6684 20.0758 12.6944 20.0865C12.7471 20.1079 12.7984 20.128 12.8496 20.1457C12.8729 20.154 12.8957 20.162 12.9181 20.1699C12.9209 20.1704 12.9232 20.1718 12.926 20.1727C12.9512 20.1815 12.9764 20.1895 13.0015 20.1974C13.1008 20.2286 13.1972 20.2542 13.2895 20.2743C13.2923 20.2747 13.2951 20.2757 13.2979 20.2761C13.3179 20.2808 13.338 20.285 13.358 20.2887C13.3804 20.2934 13.4027 20.2971 13.4246 20.3008C13.4265 20.3008 13.4284 20.3013 13.4298 20.3018C13.4442 20.3046 13.4582 20.3069 13.4722 20.3088C13.4782 20.3097 13.4847 20.3106 13.4908 20.3115C13.5122 20.3148 13.5337 20.3176 13.5546 20.3199C13.5747 20.3223 13.5938 20.3241 13.6129 20.326C13.6329 20.3279 13.6525 20.3293 13.6716 20.3307C14.508 20.381 15.5835 20.0362 16.9087 18.7594C16.9278 18.7417 16.946 18.723 16.9642 18.7049C16.9824 18.6867 17.0005 18.6685 17.0182 18.6499C17.0765 18.5902 17.1329 18.5297 17.1874 18.4682C17.2125 18.4393 17.2382 18.4099 17.2629 18.3805C17.2908 18.3479 17.3179 18.3148 17.344 18.2822C17.3714 19.0581 17.3062 20.3558 18.0466 20.8609C18.911 21.4509 20.1095 22.1153 21.0764 22.3493C21.3122 22.4061 21.6323 22.4974 21.9935 22.6097C23.1477 23.0766 24.7567 23.7258 25.6234 24.1097C26.218 24.5137 26.6746 25.0039 27.0288 25.9857C27.2706 26.6558 27.6825 28.4498 27.9966 29.8911L27.9999 29.8915Z" fill="#EBEEF0"/>
</g>
</g>
<rect x="0.4375" y="0.4375" width="27.125" height="27.125" rx="13.5625" stroke="black" stroke-opacity="0.05" stroke-width="0.875"/>
<defs>
<clipPath id="clip0_2393_10532">
<rect width="28" height="28" rx="14" fill="white"/>
</clipPath>
<clipPath id="clip1_2393_10532">
<rect width="28" height="31.8261" fill="white" transform="translate(-0.00012207 4.66699)"/>
</clipPath>
</defs>
</svg>
